<?xml version="1.0" encoding="UTF-8"?>
<svg version="1.1" viewBox="0 0 386 64" xmlns="http://www.w3.org/2000/svg">
<path fill="#010101" opacity="1.000000" stroke="none" 
	d="
M287.000000,65.000000 
	C191.333344,65.000000 96.166687,65.000000 1.000026,65.000000 
	C1.000017,43.666679 1.000017,22.333361 1.000009,1.000031 
	C129.666641,1.000021 258.333282,1.000021 386.999939,1.000010 
	C386.999939,22.333300 386.999939,43.666599 386.999969,64.999954 
	C353.833344,65.000000 320.666656,65.000000 287.000000,65.000000 
M327.577759,37.499428 
	C327.577576,29.015263 327.627106,20.530699 327.559326,12.047072 
	C327.515900,6.609800 326.151794,5.184966 320.770386,5.168057 
	C302.471405,5.110559 284.171753,5.206680 265.873169,5.104288 
	C261.181732,5.078036 259.230896,7.175633 259.248718,11.725929 
	C259.303558,25.699623 259.226440,39.673851 259.286652,53.647503 
	C259.311218,59.353867 260.743256,60.817097 266.348999,60.833633 
	C284.481659,60.887127 302.614624,60.882751 320.747314,60.835449 
	C326.114258,60.821449 327.421082,59.495705 327.550201,53.969414 
	C327.670593,48.815174 327.576904,43.655937 327.577759,37.499428 
M166.064896,39.451511 
	C166.064896,42.225677 166.064896,44.999840 166.064896,47.829117 
	C168.536636,47.829117 170.468399,47.829117 172.924561,47.829117 
	C172.924561,43.029377 172.549606,38.371525 173.118408,33.831921 
	C173.330917,32.135845 175.744370,30.715538 177.154282,29.169497 
	C177.995407,30.766253 179.441498,32.318844 179.561905,33.968212 
	C179.895813,38.541882 179.677658,43.155849 179.677658,47.879211 
	C182.154999,47.879211 184.120651,47.879211 186.685516,47.879211 
	C186.685516,43.123409 186.315796,38.462860 186.874115,33.916275 
	C187.086578,32.186108 189.430756,30.717712 190.803391,29.130018 
	C191.624786,30.734770 193.036652,32.297459 193.154526,33.952328 
	C193.480850,38.533524 193.267563,43.153160 193.267563,47.668266 
	C195.912399,47.668266 
197.964401,47.668266 200.164398,47.668266 
	C200.164398,42.832966 200.163956,38.356350 200.164536,33.879738 
	C200.165024,30.152458 200.199966,26.239807 196.034180,24.556307 
	C192.155991,22.989027 188.539124,23.904619 186.263687,26.353199 
	C183.387146,25.458105 180.993271,24.082764 178.617981,24.114140 
	C174.521072,24.168257 170.435730,25.097057 166.064911,25.697376 
	C166.064911,29.863974 166.064911,34.165764 166.064896,39.451511 
M87.238396,16.774933 
	C80.854218,16.402836 74.470047,16.030737 67.878326,15.646543 
	C67.878326,26.785175 67.878326,37.207062 67.878326,47.816399 
	C70.094917,47.816399 72.185997,47.816399 74.698189,47.816399 
	C74.698189,43.884007 74.698189,40.146309 74.698189,36.184547 
	C81.482841,35.506588 89.461800,38.094315 92.265030,29.184544 
	C93.790985,24.334412 92.617958,19.976418 87.238396,16.774933 
M115.412354,29.006720 
	C114.837540,30.550547 113.982796,32.051773 113.740143,33.646152 
	C112.998589,38.518745 113.881020,43.037392 118.253723,45.954319 
	C122.577332,48.838505 127.330772,49.139187 131.836563,46.420135 
	C136.426880,43.650089 138.011566,39.262047 137.320724,34.031853 
	C136.700790,29.338509 134.213089,25.805183 129.698349,24.520796 
	C124.501007,23.042217 119.480316,23.610424 115.412354,29.006720 
M207.470993,43.909550 
	C208.477127,44.756783 209.390182,45.760555 210.505722,46.423809 
	C215.019241,49.107426 221.118484,48.610767 224.881165,45.366528 
	C228.698715,42.074978 230.052414,36.242149 228.154922,31.260492 
	C226.278641,26.334457 222.302017,23.864286 216.432220,23.978664 
	C206.777664,24.166788 202.280319,33.399406 207.470993,43.909550 
M150.588379,29.691298 
	C148.515182,24.916655 144.860901,24.075991 139.877579,25.476788 
	C142.422562,29.209835 144.812744,32.715824 147.169327,36.172543 
	C144.510559,40.110653 142.050888,43.753841 139.648804,47.311745 
	C145.845642,50.109627 148.661667,46.176655 151.351624,41.053013 
	C153.714447,47.336269 157.236542,49.396820 162.587570,47.632725 
	C162.554886,47.327919 162.625488,46.950817 162.473236,46.721905 
	C160.177780,43.270279 156.117798,39.887306 156.018616,36.387707 
	C155.917526,32.821098 159.705185,29.144270 161.809982,25.481224 
	C156.956757,23.758961 
153.556152,25.255718 150.588379,29.691298 
M250.045425,30.537807 
	C251.188110,28.891136 252.330795,27.244467 253.528870,25.517988 
	C247.768677,23.656433 244.494965,25.677492 242.374298,31.230125 
	C240.276077,25.193371 236.598709,23.799959 231.418472,25.447943 
	C233.687271,29.091631 237.739456,32.728966 237.673187,36.289642 
	C237.605087,39.946697 233.511459,43.527344 231.196136,47.152023 
	C231.134888,47.247940 231.265442,47.466385 231.293381,47.575954 
	C237.115631,49.842823 240.149536,46.552914 242.585983,40.681019 
	C244.738831,46.966957 248.136292,49.572716 254.237503,47.437984 
	C252.637299,45.062553 251.344833,42.534706 249.489441,40.527081 
	C246.415878,37.201279 246.472656,34.247250 250.045425,30.537807 
M97.142235,33.556740 
	C97.142235,38.307838 97.14235,43.058937 97.142235,47.814743 
	C99.667213,47.814743 101.595375,47.814743 104.210815,47.814743 
	C104.210815,43.348610 103.879951,39.045109 104.372078,34.837875 
	C104.571663,33.131592 106.383263,31.446922 107.789879,30.093977 
	C109.311020,28.630877 111.215775,27.566595 112.953209,26.328365 
	C112.635712,25.625191 112.318214,24.922016 112.000717,24.218843 
	C107.125305,24.586830 102.249893,24.954817 97.142372,25.340321 
	C97.142372,27.978727 97.142372,30.280136 97.142235,33.556740 
z"/>
<path fill="#EE921D" opacity="1.000000" stroke="none" 
	d="
M327.577606,37.999161 
	C327.576904,43.655937 327.670593,48.815174 327.550201,53.969414 
	C327.421082,59.495705 326.114258,60.821449 320.747314,60.835449 
	C302.614624,60.882751 284.481659,60.887127 266.348999,60.833633 
	C260.743256,60.817097 259.311218,59.353867 259.286652,53.647503 
	C259.226440,39.673851 259.303558,25.699623 259.248718,11.725929 
	C259.230896,7.175633 261.181732,5.078036 265.873169,5.104288 
	C284.171753,5.206680 302.471405,5.110559 320.770386,5.168057 
	C326.151794,5.184966 327.515900,6.609800 327.559326,12.047072 
	C327.627106,20.530699 327.577576,29.015263 327.577606,37.999161 
M318.127625,16.025503 
	C311.032501,16.025503 303.937378,16.025503 296.856964,16.025503 
	C296.856964,26.968170 296.856964,37.233910 296.856964,47.715729 
	C304.829987,47.715729 312.559631,47.715729 320.647552,47.715729 
	C320.559753,46.042252 320.487549,44.666237 320.394073,42.884949 
	C314.423340,42.884949 308.828674,42.884949 303.185303,42.884949 
	C303.185303,39.401684 303.185303,36.355061 303.185303,32.936848 
	C308.449646,32.936848 313.390350,32.936848 318.564758,32.936848 
	C318.564758,31.178581 318.564758,29.805336 318.564758,27.898178 
	C313.234375,27.898178 308.159790,27.898178 303.050232,27.898178 
	C303.050232,25.414465 303.050232,23.469624 303.050232,21.040939 
	C308.644684,21.040939 314.067993,21.040939 320.238220,21.040939 
	C319.741669,18.999962 319.393005,17.566994 318.127625,16.025503 
M288.624207,15.999455 
	C287.500854,17.143728 285.845947,18.093864 285.344971,19.465452 
	C283.018707,25.834677 281.012238,32.320694 278.520721,39.890732 
	C276.174042,32.840374 273.841705,26.993599 272.335114,20.941269 
	C271.118805,16.055117 268.673706,14.948439 264.054932,16.602665 
	C266.980499,25.148558 270.202667,33.520313 272.654694,42.111874 
	C274.137421,47.307213 276.592743,49.301285 281.985657,47.504143 
	C285.597931,37.244938 289.256775,26.853489 293.079407,15.996832 
	C291.409821,15.996832 290.427185,15.996832 288.624207,15.999455 
z"/>
<path fill="#F0F0F0" opacity="1.000000" stroke="none" 
	d="
M166.064911,38.959534 
	C166.064911,34.165764 166.064911,29.863974 166.064911,25.697376 
	C170.435730,25.097057 174.521072,24.168257 178.617981,24.114140 
	C180.993271,24.082764 183.387146,25.458105 186.263687,26.353199 
	C188.539124,23.904619 192.155991,22.989027 196.034180,24.556307 
	C200.199966,26.239807 200.165024,30.152458 200.164536,33.879738 
	C200.163956,38.356350 200.164398,42.832966 200.164398,47.668266 
	C197.964401,47.668266 195.912399,47.668266 193.267563,47.668266 
	C193.267563,43.153160 193.480850,38.533524 193.154526,33.952328 
	C193.036652,32.297459 191.624786,30.734770 190.803375,29.130016 
	C189.430756,30.717712 187.086578,32.186108 186.874115,33.916275 
	C186.315796,38.462860 186.685516,43.123409 186.685516,47.879211 
	C184.120651,47.879211 182.154999,47.879211 179.677658,47.879211 
	C179.677658,43.155849 179.895813,38.541882 179.561905,33.968212 
	C179.441498,32.318844 177.995407,30.766253 177.154282,29.169495 
	C175.744370,30.715538 
173.330917,32.135845 173.118408,33.831921 
	C172.549606,38.371525 172.924561,43.029377 172.924561,47.829117 
	C170.468399,47.829117 168.536636,47.829117 166.064896,47.829117 
	C166.064896,44.999840 166.064896,42.225677 166.064911,38.959534 
z"/>
<path fill="#F4F4F4" opacity="1.000000" stroke="none" 
	d="
M87.618973,16.917625 
	C92.617958,19.976418 93.790985,24.334412 92.265030,29.184544 
	C89.461800,38.094315 81.482841,35.506588 74.698189,36.184547 
	C74.698189,40.146309 74.698189,43.884007 74.698189,47.816399 
	C72.185997,47.816399 70.094917,47.816399 67.878326,47.816399 
	C67.878326,37.207062 67.878326,26.785175 67.878326,15.646543 
	C74.470047,16.030737 80.854218,16.402836 87.618973,16.917625 
M79.083954,30.981810 
	C82.920319,30.681732 86.560486,29.492229 85.171051,24.820509 
	C83.570335,19.438391 78.813431,21.238543 74.707703,21.253878 
	C74.707703,23.735147 74.898560,25.883423 74.661858,27.983509 
	C74.327614,30.949030 75.943329,31.246456 79.083954,30.981810 
z"/>
<path fill="#F2F2F2" opacity="1.000000" stroke="none" 
	d="
M115.622948,28.695000 
	C119.480316,23.610424 124.501007,23.042217 129.698349,24.520796 
	C134.213089,25.805183 136.700790,29.338509 137.320724,34.031853 
	C138.011566,39.262047 136.426880,43.650089 131.836563,46.420135 
	C127.330772,49.139187 122.577332,48.838505 118.253723,45.954319 
	C113.881020,43.037392 112.998589,38.518745 113.740143,33.646152 
	C113.982796,32.051773 114.837540,30.550547 115.622948,28.695000 
M130.543945,37.931358 
	C130.410736,36.131798 130.935074,33.764812 129.988113,32.667469 
	C128.614059,31.075203 126.177513,30.399824 124.194122,29.333391 
	C122.888161,31.773342 120.642128,34.186699 120.572113,36.661613 
	C120.515579,38.660328 123.083023,40.733269 124.486412,42.773281 
	C126.442894,41.411892 128.399368,40.050503 130.543945,37.931358 
z"/>
<path fill="#F3F3F3" opacity="1.000000" stroke="none" 
	d="
M207.249725,43.596634 
	C202.280319,33.399406 206.777664,24.166788 216.432220,23.978664 
	C222.302017,23.864286 226.278641,26.334457 228.154922,31.260492 
	C230.052414,36.242149 228.698715,42.074978 224.881165,45.366528 
	C221.118484,48.610767 215.019241,49.107426 210.505722,46.423809 
	C209.390182,45.760555 208.477127,44.756783 207.249725,43.596634 
M211.831909,36.413578 
	C212.883698,42.198456 216.981720,44.995922 219.695694,41.599911 
	C221.413330,39.450596 221.621613,35.608345 221.387192,32.613018 
	C221.286163,31.322065 218.318115,29.237906 216.711716,29.291399 
	C213.225067,29.407511 211.865326,32.231178 211.831909,36.413578 
z"/>
<path fill="#F1F1F1" opacity="1.000000" stroke="none" 
	d="
M151.029541,29.767452 
	C153.556152,25.255718 156.956757,23.758961 161.809982,25.481224 
	C159.705185,29.144270 155.917526,32.821098 156.018616,36.387707 
	C156.117798,39.887306 160.177780,43.270279 162.473236,46.721905 
	C162.625488,46.950817 162.554886,47.327919 162.587570,47.632725 
	C157.236542,49.396820 153.714447,47.336269 151.351624,41.053013 
	C148.661667,46.176655 145.845642,50.109627 139.648804,47.311745 
	C142.050888,43.753841 144.510559,40.110653 147.169327,36.172543 
	C144.812744,32.715824 142.422562,29.209835 139.877579,25.476788 
	C144.860901,24.075991 148.515182,24.916655 151.029541,29.767452 
z"/>
<path fill="#F0F0F0" opacity="1.000000" stroke="none" 
	d="
M249.844955,30.860584 
	C246.472656,34.247250 246.415878,37.201279 249.489441,40.527081 
	C251.344833,42.534706 252.637299,45.062553 254.237503,47.437984 
	C248.136292,49.572716 244.738831,46.966957 242.585983,40.681019 
	C240.149536,46.552914 237.115631,49.842823 231.293381,47.575954 
	C231.265442,47.466385 231.134888,47.247940 231.196136,47.152023 
	C233.511459,43.527344 237.605087,39.946697 237.673187,36.289642 
	C237.739456,32.728966 233.687271,29.091631 231.418472,25.447943 
	C236.598709,23.799959 240.276077,25.193371 242.374298,31.230125 
	C244.494965,25.677492 247.768677,23.656433 253.528870,25.517988 
	C252.330795,27.244467 251.188110,28.891136 249.844955,30.860584 
z"/>
<path fill="#F1F1F1" opacity="1.000000" stroke="none" 
	d="
M97.142303,33.069141 
	C97.142372,30.280136 97.142372,27.978727 97.142372,25.340321 
	C102.249893,24.954817 107.125305,24.586830 112.000717,24.218843 
	C112.318214,24.922016 112.635712,25.625191 112.953209,26.328365 
	C111.215775,27.566595 109.311020,28.630877 107.789879,30.093977 
	C106.383263,31.446922 104.571663,33.131592 104.372078,34.837875 
	C103.879951,39.045109 104.210815,43.348610 104.210815,47.814743 
	C101.595375,47.814743 99.667213,47.814743 97.142235,47.814743 
	C97.142235,43.058937 97.142235,38.307838 97.142303,33.069141 
z"/>
<path fill="#040301" opacity="1.000000" stroke="none" 
	d="
M318.585999,16.079765 
	C319.393005,17.566994 319.741669,18.999962 320.238220,21.040939 
	C314.067993,21.040939 308.644684,21.040939 303.050232,21.040939 
	C303.050232,23.469624 303.050232,25.414465 303.050232,27.898178 
	C308.159790,27.898178 313.234375,27.898178 318.564758,27.898178 
	C318.564758,29.805336 318.564758,31.178581 318.564758,32.936848 
	C313.390350,32.936848 308.449646,32.936848 303.185303,32.936848 
	C303.185303,36.355061 303.185303,39.401684 303.185303,42.884949 
	C308.828674,42.884949 314.423340,42.884949 320.394073,42.884949 
	C320.487549,44.666237 320.559753,46.042252 320.647552,47.715729 
	C312.559631,47.715729 304.829987,47.715729 296.856964,47.715729 
	C296.856964,37.233910 296.856964,26.968170 296.856964,16.025503 
	C303.937378,16.025503 311.032501,16.025503 318.585999,16.079765 
z"/>
<path fill="#0B0701" opacity="1.000000" stroke="none" 
	d="
M289.034363,15.998144 
	C290.427185,15.996832 291.409821,15.996832 293.079407,15.996832 
	C289.256775,26.853489 285.597931,37.244938 281.985657,47.504143 
	C276.592743,49.301285 274.137421,47.307213 272.654694,42.111874 
	C270.202667,33.520313 266.980499,25.148558 264.054932,16.602665 
	C268.673706,14.948439 271.118805,16.055117 272.335114,20.941269 
	C273.841705,26.993599 276.174042,32.840374 278.520721,39.890732 
	C281.012238,32.320694 283.018707,25.834677 285.344971,19.465452 
	C285.845947,18.093864 287.500854,17.143728 289.034363,15.998144 
z"/>
<path fill="#040404" opacity="1.000000" stroke="none" 
	d="
M78.636185,30.983406 
	C75.943329,31.246456 74.327614,30.949030 74.661858,27.983509 
	C74.898560,25.883423 74.707703,23.735147 74.707703,21.253878 
	C78.813431,21.238543 83.570335,19.438391 85.171051,24.820509 
	C86.560486,29.492229 
82.920319,30.681732 78.636185,30.983406 
z"/>
<path fill="#0F0F0F" opacity="1.000000" stroke="none" 
	d="
M130.449890,38.310234 
	C128.399368,40.050503 126.442894,41.411892 124.486412,42.773281 
	C123.083023,40.733269 120.515579,38.660328 120.572113,36.661613 
	C120.642128,34.186699 122.888161,31.773342 124.194122,29.333393 
	C126.177513,30.399824 128.614059,31.075203 129.988113,32.667469 
	C130.935074,33.764812 130.410736,36.131798 130.449890,38.310234 
z"/>
<path fill="#0B0B0B" opacity="1.000000" stroke="none" 
	d="
M211.831848,36.002674 
	C211.865326,32.231178 213.225067,29.407511 216.711716,29.291399 
	C218.318115,29.237906 221.286163,31.322065 221.387192,32.613018 
	C221.621613,35.608345 221.413330,39.450596 219.695694,41.599911 
	C216.981720,44.995922 212.883698,42.198456 211.831848,36.002674 
z"/>
</svg>
